<?xml version="1.0" standalone="no"?>
<!DOCTYPE svg PUBLIC "-//W3C//DTD SVG 20010904//EN"
 "http://www.w3.org/TR/2001/REC-SVG-20010904/DTD/svg10.dtd">
<svg version="1.0" xmlns="http://www.w3.org/2000/svg"
 width="512.000000pt" height="512.000000pt" viewBox="0 0 512.000000 512.000000"
 preserveAspectRatio="xMidYMid meet">
<metadata>
Created by potrace 1.14, written by Peter Selinger 2001-2017
</metadata>
<g transform="translate(0.000000,512.000000) scale(0.100000,-0.100000)"
fill="#000000" stroke="none">
<path d="M2476 4280 c-16 -5 -51 -30 -77 -56 -51 -50 -49 -50 -110 -2 -121 96
-290 -4 -314 -187 -10 -79 -10 -78 -52 -56 -110 55 -164 49 -246 -28 -68 -63
-100 -129 -102 -209 l-1 -64 -55 -51 c-82 -76 -92 -100 -98 -244 -3 -67 -8
-123 -11 -125 -3 -3 -27 -12 -53 -22 -34 -13 -57 -30 -80 -62 l-32 -43 -140
-1 c-127 0 -152 -3 -273 -35 -73 -19 -150 -43 -170 -53 -73 -34 -103 -149 -63
-238 19 -41 58 -78 166 -153 33 -23 85 -60 115 -82 61 -45 132 -69 200 -69
l47 0 6 -62 c10 -101 25 -136 75 -185 l46 -45 -14 -71 c-37 -193 -21 -259 88
-356 l64 -59 -15 -65 c-42 -184 100 -381 244 -338 59 18 59 18 60 -71 1 -94
19 -155 65 -220 45 -64 82 -78 201 -78 l98 0 68 -54 c76 -61 104 -71 174 -60
39 6 57 16 103 60 69 66 126 82 216 64 46 -10 67 -22 113 -65 70 -64 106 -73
191 -49 43 12 75 30 115 65 l55 48 41 -14 c23 -8 56 -15 73 -15 76 1 157 67
202 165 24 53 50 196 40 222 -5 11 -2 13 10 9 41 -16 92 -17 126 -3 76 32 159
131 173 207 3 19 -1 70 -9 113 l-15 78 39 35 c59 53 117 146 131 210 11 50 10
64 -10 144 l-23 89 36 44 c48 58 77 127 83 197 l6 57 77 6 c44 3 92 12 111 22
41 22 251 176 297 219 87 80 97 202 25 278 -56 59 -230 96 -486 105 l-137 5
-28 39 c-15 21 -40 43 -57 49 -87 32 -98 52 -89 160 9 106 -35 205 -121 270
-26 20 -30 30 -33 74 -5 115 -46 193 -136 258 -33 23 -49 28 -100 28 -42 0
-74 -6 -101 -20 -22 -11 -42 -20 -46 -20 -4 0 -10 24 -14 53 -19 144 -110 237
-233 237 -39 0 -64 -12 -110 -52 -37 -32 -31 -33 -106 26 -64 50 -147 68 -220
46z m127 -112 c12 -6 47 -33 76 -60 30 -26 63 -48 73 -48 11 0 53 20 96 45 81
48 114 54 149 30 27 -19 40 -59 48 -155 13 -144 47 -167 167 -110 79 38 104
38 151 -1 56 -46 70 -81 68 -167 -2 -81 -1 -82 105 -167 50 -40 67 -84 62
-166 -5 -86 -39 -142 -106 -171 l-46 -21 -117 38 c-106 35 -120 37 -148 25
-34 -14 -72 -62 -115 -149 -31 -61 -70 -101 -98 -101 -10 0 -62 29 -116 65
-53 36 -108 65 -121 65 -13 0 -50 -20 -83 -45 -47 -35 -69 -45 -98 -45 -30 0
-49 9 -92 45 -74 61 -96 60 -179 -9 -79 -65 -99 -76 -137 -76 -46 0 -82 37
-123 125 -36 79 -84 135 -115 135 -8 0 -64 -16 -125 -36 -75 -24 -119 -33
-139 -29 -71 16 -120 91 -128 196 -6 87 13 128 74 160 58 30 80 73 89 170 4
40 14 89 22 107 20 42 68 82 100 82 14 0 65 -21 113 -46 140 -74 165 -56 165
119 l0 108 37 35 c22 20 48 34 63 34 14 0 56 -20 93 -45 37 -25 76 -45 88 -45
12 0 41 17 65 39 87 76 135 95 182 69z m-1476 -1184 c94 -19 155 -43 150 -58
-5 -18 -162 -101 -233 -125 -103 -34 -199 -23 -254 29 -33 31 -41 82 -17 114
37 51 208 70 354 40z m3118 0 c156 -40 154 -162 -2 -195 -67 -14 -128 -2 -260
51 -167 67 -178 114 -33 146 79 18 225 17 295 -2z m-2286 -315 c46 -28 115
-81 153 -117 l70 -66 -27 -23 c-31 -27 -67 -29 -144 -8 -95 25 -191 138 -191
225 0 37 2 40 28 40 16 0 63 -22 111 -51z m1351 18 c0 -90 -94 -212 -183 -236
-79 -23 -167 2 -167 47 0 22 64 78 170 148 79 52 102 63 138 64 37 0 42 -3 42
-23z m-1772 -58 c17 -6 40 -25 51 -42 10 -18 49 -135 86 -262 174 -602 335
-983 547 -1297 21 -31 38 -59 38 -62 0 -4 -16 -6 -35 -6 -28 0 -46 11 -97 56
-62 55 -64 56 -113 51 -27 -3 -71 -12 -96 -20 -61 -20 -86 -7 -118 57 -26 52
-29 87 -20 238 3 66 1 80 -17 105 -27 36 -58 39 -125 14 -74 -29 -105 -27
-139 7 -36 37 -46 88 -31 167 23 127 15 151 -74 223 -33 26 -65 59 -72 72 -18
36 -16 90 8 183 26 101 19 129 -50 210 -79 92 -80 179 -2 250 64 57 182 83
259 56z m2188 -4 c63 -19 127 -66 148 -109 32 -68 16 -130 -53 -208 -61 -69
-65 -92 -36 -213 33 -134 29 -149 -72 -242 l-78 -71 1 -54 c0 -29 4 -85 9
-124 6 -56 4 -76 -9 -101 -33 -66 -86 -78 -176 -43 -115 45 -148 18 -135 -113
15 -147 13 -179 -17 -224 -16 -25 -44 -49 -70 -61 -41 -20 -45 -20 -104 -4
l-62 16 -75 -58 c-64 -49 -80 -57 -111 -54 l-35 3 60 100 c86 142 206 385 277
560 77 190 198 546 267 785 57 199 62 207 133 221 59 11 85 10 138 -6z m-1381
-1330 c69 -33 135 -97 135 -130 0 -36 -18 -39 -84 -15 -68 26 -136 76 -154
114 -29 60 14 73 103 31z m553 2 c8 -42 -176 -173 -231 -165 -13 2 -23 11 -25
23 -4 35 35 82 105 124 54 33 76 41 108 39 29 -2 41 -8 43 -21z"/>
</g>
</svg>
